<?xml version="1.0" encoding="UTF-8"?>
<svg width="64" height="64" viewBox="0 0 64 64" xmlns="http://www.w3.org/2000/svg">
  <circle cx="32" cy="32" r="30" fill="#3C5064" stroke="#788CA0" stroke-width="2"/>
  <g transform="translate(32,32)">
    <path d="M-18,0 L-16,-4 L-12,-4 L-14,0 L-12,4 L-16,4 Z M-12.7,-12.7 L-9.9,-15.5 L-7.1,-12.7 L-9.9,-9.9 L-12.7,-12.7 Z M0,-18 L4,-16 L4,-12 L0,-14 L-4,-12 L-4,-16 Z M12.7,-12.7 L15.5,-9.9 L12.7,-7.1 L9.9,-9.9 L12.7,-12.7 Z M18,0 L16,4 L12,4 L14,0 L12,-4 L16,-4 Z M12.7,12.7 L9.9,15.5 L7.1,12.7 L9.9,9.9 L12.7,12.7 Z M0,18 L-4,16 L-4,12 L0,14 L4,12 L4,16 Z M-12.7,12.7 L-15.5,9.9 L-12.7,7.1 L-9.9,9.9 L-12.7,12.7 Z" fill="#FFFFFF"/>
    <circle cx="0" cy="0" r="8" fill="#3C5064" stroke="#FFFFFF" stroke-width="2"/>
  </g>
</svg>