<?xml version="1.0" encoding="UTF-8" standalone="no"?>
<!-- Created with Inkscape (http://www.inkscape.org/) -->

<svg
   width="48"
   height="48"
   version="1.1"
   viewBox="0 0 48 48"
   id="svg19"
   sodipodi:docname="credit_button_hover.svg"
   inkscape:export-filename="../credits_button_hover.png"
   inkscape:export-xdpi="96"
   inkscape:export-ydpi="96"
   inkscape:version="1.4.2 (ebf0e940d0, 2025-05-08)"
   xmlns:inkscape="http://www.inkscape.org/namespaces/inkscape"
   xmlns:sodipodi="http://sodipodi.sourceforge.net/DTD/sodipodi-0.dtd"
   xmlns="http://www.w3.org/2000/svg"
   xmlns:svg="http://www.w3.org/2000/svg">
  <sodipodi:namedview
     id="namedview19"
     pagecolor="#ffffff"
     bordercolor="#000000"
     borderopacity="0.25"
     inkscape:showpageshadow="2"
     inkscape:pageopacity="0.0"
     inkscape:pagecheckerboard="0"
     inkscape:deskcolor="#d1d1d1"
     inkscape:zoom="16.666667"
     inkscape:cx="24"
     inkscape:cy="24"
     inkscape:window-width="1920"
     inkscape:window-height="1011"
     inkscape:window-x="0"
     inkscape:window-y="0"
     inkscape:window-maximized="1"
     inkscape:current-layer="svg19" />
  <defs
     id="defs8">
    <radialGradient
       id="radialGradient3"
       cx="24"
       cy="24"
       r="13.505"
       gradientTransform="matrix(1.8138 1.3716 -.71035 .93939 -2.4828 -31.463)"
       gradientUnits="userSpaceOnUse">
      <stop
         stop-color="#00f"
         offset="0"
         id="stop1" />
      <stop
         stop-color="#00f"
         stop-opacity="0"
         offset="1"
         id="stop2" />
    </radialGradient>
    <radialGradient
       id="radialGradient27"
       cx="21.121"
       cy="26.607"
       r="10.734"
       gradientTransform="matrix(.74701 -.57733 1.1507 1.4889 -21.554 1.738)"
       gradientUnits="userSpaceOnUse">
      <stop
         stop-color="#00f"
         offset="0"
         id="stop3" />
      <stop
         offset="1"
         id="stop4" />
    </radialGradient>
    <radialGradient
       id="radialGradient30"
       cx="27.347"
       cy="28.993"
       r="12.38"
       gradientTransform="matrix(.83671 -.74964 1.5248 1.7019 -39.249 .55843)"
       gradientUnits="userSpaceOnUse">
      <stop
         stop-color="#00f"
         offset="0"
         id="stop5" />
      <stop
         offset="1"
         id="stop6" />
    </radialGradient>
    <radialGradient
       id="radialGradient32"
       cx="24.715"
       cy="32.191"
       r="14.53"
       gradientTransform="matrix(.55987 -.56064 1.5101 1.5081 -33.64 -5.4)"
       gradientUnits="userSpaceOnUse">
      <stop
         stop-color="#00f"
         offset="0"
         id="stop7" />
      <stop
         offset="1"
         id="stop8" />
    </radialGradient>
  </defs>
  <rect
     style="display:inline;fill:#ffff00;stroke:none;stroke-width:0.232;stroke-dasharray:none"
     id="rect19"
     width="42.779999"
     height="43.139999"
     x="2.9999998"
     y="2.8199999"
     ry="6.48" />
  <path
     d="m 24,37.477 c -6.8267,0 -8.414,-0.13216 -9.7794,-0.81422 -1.0608,-0.52991 -1.9958,-1.5398 -2.6777,-2.8921 -0.96089,-1.9055 -1.0478,-2.718 -1.0478,-9.7971 0,-7.0893 0.08551,-7.8861 1.0478,-9.7627 0.64686,-1.2615 1.6715,-2.3749 2.6777,-2.9097 1.4513,-0.7714 2.5832,-0.85172 10.329,-0.73298 7.9462,0.12181 8.8127,0.21681 10.012,1.0978 0.72227,0.53045 1.6796,1.683 2.1274,2.5613 0.6863,1.3459 0.81434,2.9213 0.81495,10.027 4.59e-4,7.9895 -0.05449,8.5125 -1.0564,10.012 -0.5814,0.87028 -1.7863,1.9487 -2.6777,2.3966 -1.3583,0.68242 -2.9398,0.81422 -9.7701,0.81422 z"
     display="none"
     stroke-width="0.46568"
     id="path8" />
  <path
     d="m 24,37.477 c -6.8267,0 -8.414,-0.13216 -9.7794,-0.81422 -1.0608,-0.52991 -1.9958,-1.5398 -2.6777,-2.8921 -0.96089,-1.9055 -1.0478,-2.718 -1.0478,-9.7971 0,-7.0893 0.08551,-7.8861 1.0478,-9.7627 0.64686,-1.2615 1.6715,-2.3749 2.6777,-2.9097 1.4513,-0.7714 2.5832,-0.85172 10.329,-0.73298 7.9462,0.12181 8.8127,0.21681 10.012,1.0978 0.72227,0.53045 1.6796,1.683 2.1274,2.5613 0.6863,1.3459 0.81434,2.9213 0.81495,10.027 4.59e-4,7.9895 -0.05449,8.5125 -1.0564,10.012 -0.5814,0.87028 -1.7863,1.9487 -2.6777,2.3966 -1.3583,0.68242 -2.9398,0.81422 -9.7701,0.81422 z"
     display="none"
     fill="url(#radialGradient3)"
     stroke-width="0.46568"
     id="path9" />
  <path
     d="M 24.001,45.686 C 13.016,45.686 10.462,45.47335 8.265,44.3758 6.5581,43.52311 5.0536,41.8981 3.9563,39.7221 2.4101,36.6559 2.2703,35.3484 2.2703,23.9571 c 0,-11.408 0.1376,-12.69 1.686,-15.709 C 4.9972,6.2182 6.6459,4.4266 8.265,3.566 10.6003,2.3247 12.4217,2.1955 24.886,2.3865 c 12.786,0.196 14.181,0.34888 16.111,1.7665 1.1622,0.85356 2.7027,2.7082 3.4233,4.1214 1.1043,2.1657 1.3104,4.7008 1.3114,16.134 7.4e-4,12.856 -0.08767,13.698 -1.6998,16.111 -0.93554,1.4004 -2.8745,3.1358 -4.3087,3.8564 -2.1856,1.0981 -4.7306,1.3102 -15.721,1.3102 z"
     display="none"
     fill="#ffffff"
     fill-opacity="0.35859"
     stroke-width="0.74935"
     id="path10" />
  <path
     d="m 17.115,10.407 c -0.73312,0 -2.4666,1.1415 -3.8521,2.5358 -1.3852,1.3945 -2.6567,3.1477 -2.8258,3.895 -0.20171,0.89132 0.86196,2.4153 5.1775,7.0184 -3.7995,3.8086 -4.786,5.2034 -5.0778,6.6042 -0.37593,1.8047 0.0021,2.7011 1.9805,4.6789 1.4838,1.4838 3.1341,2.4468 4.1926,2.4468 1.1445,0 2.5702,-1.0005 7.0214,-5.3232 3.9021,3.9014 5.3127,4.9056 6.7284,5.2005 1.8047,0.37593 2.7011,-0.0021 4.6789,-1.9805 1.4838,-1.4838 2.4469,-3.1341 2.4469,-4.1926 0,-1.1681 -1.0434,-2.6288 -5.5963,-7.3006 3.8851,-4.0301 5.604,-6.1515 5.604,-6.8742 0,-0.73313 -1.1415,-2.4666 -2.5358,-3.8521 -1.3945,-1.3852 -3.1477,-2.6567 -3.895,-2.8258 -0.90958,-0.20584 -2.4781,0.90673 -7.3053,5.4475 -3.9454,-3.7964 -6.0274,-5.4782 -6.7422,-5.4782 z"
     display="none"
     fill="#ff0000"
     stroke-width="0.78544"
     id="path12" />
  <path
     d="m 32.166,36.718 c 0.45034,-0.02172 1.4099,-0.2783 2.1324,-0.57023 0.7225,-0.29194 1.4656,-0.92681 1.6513,-1.4108 0.18574,-0.48402 0.37659,-5.2186 0.42412,-10.521 0.04755,-5.3027 -0.19857,-10.391 -0.54689,-11.307 -0.55618,-1.4629 -0.97172,-1.6657 -3.4124,-1.6657 -1.5285,0 -2.9336,0.24997 -3.1224,0.55549 -0.18882,0.30552 -0.38197,2.2658 -0.42922,4.3562 -0.04723,2.0904 -0.33868,3.8007 -0.64762,3.8007 -0.30894,0 -3.5093,-1.9776 -7.1118,-4.3946 -4.2013,-2.8187 -7.0391,-4.3251 -7.9137,-4.2006 -1.3412,0.19088 -1.3664,0.38651 -1.5332,11.937 -0.11747,8.1348 0.04935,12.007 0.54293,12.602 0.39188,0.47219 0.9537,0.85852 1.2485,0.85852 0.2948,0 3.6457,-2.1016 7.4464,-4.6701 3.8007,-2.5686 7.1658,-4.5123 7.4778,-4.3194 0.31207,0.19288 0.56741,2.0045 0.56741,4.0259 0,2.9967 0.22224,3.7942 1.2037,4.3194 0.66204,0.35431 1.5722,0.62645 2.0225,0.60475 z"
     display="inline"
     fill="url(#radialGradient30)"
     stroke-width="0.62231"
     id="path13" />
  <path
     d="m 32.166,36.718 c 0.45034,-0.02172 1.4099,-0.2783 2.1324,-0.57023 0.7225,-0.29194 1.4656,-0.92681 1.6513,-1.4108 0.18574,-0.48402 0.37659,-5.2186 0.42412,-10.521 0.04755,-5.3027 -0.19857,-10.391 -0.54689,-11.307 -0.55618,-1.4629 -0.97172,-1.6657 -3.4124,-1.6657 -1.5285,0 -2.9336,0.24997 -3.1224,0.55549 -0.18882,0.30552 -0.38197,2.2658 -0.42922,4.3562 -0.04723,2.0904 -0.33868,3.8007 -0.64762,3.8007 -0.30894,0 -3.5093,-1.9776 -7.1118,-4.3946 -4.2013,-2.8187 -7.0391,-4.3251 -7.9137,-4.2006 -1.3412,0.19088 -1.3664,0.38651 -1.5332,11.937 -0.11747,8.1348 0.04935,12.007 0.54293,12.602 0.39188,0.47219 0.9537,0.85852 1.2485,0.85852 0.2948,0 3.6457,-2.1016 7.4464,-4.6701 3.8007,-2.5686 7.1658,-4.5123 7.4778,-4.3194 0.31207,0.19288 0.56741,2.0045 0.56741,4.0259 0,2.9967 0.22224,3.7942 1.2037,4.3194 0.66204,0.35431 1.5722,0.62645 2.0225,0.60475 z"
     display="inline"
     stroke-width="0.62231"
     id="path14" />
  <path
     d="m 14.786,38.278 c -0.49288,0 -1.0705,-0.70872 -1.2837,-1.5749 -0.21313,-0.86621 -0.29787,-7.2446 -0.18833,-14.174 0.19003,-12.021 0.2639,-12.609 1.6099,-12.802 0.85266,-0.12219 5.0062,2.2389 10.499,5.9685 5.9629,4.0484 9.1595,6.6589 9.2946,7.5904 0.11319,0.78088 -0.35928,1.9305 -1.0499,2.5547 -0.69066,0.62419 -5.02,3.6779 -9.6208,6.786 -4.6008,3.1081 -8.7683,5.6511 -9.2612,5.6511 z"
     display="none"
     stroke-width="0.69997"
     id="path15" />
  <path
     d="m 14.786,38.278 c -0.49288,0 -1.0705,-0.70872 -1.2837,-1.5749 -0.21313,-0.86621 -0.29787,-7.2446 -0.18833,-14.174 0.19003,-12.021 0.2639,-12.609 1.6099,-12.802 0.85266,-0.12219 5.0062,2.2389 10.499,5.9685 5.9629,4.0484 9.1595,6.6589 9.2946,7.5904 0.11319,0.78088 -0.35928,1.9305 -1.0499,2.5547 -0.69066,0.62419 -5.02,3.6779 -9.6208,6.786 -4.6008,3.1081 -8.7683,5.6511 -9.2612,5.6511 z"
     display="none"
     fill="url(#radialGradient27)"
     stroke-width="0.69997"
     id="path16" />
  <path
     d="m 23.061,9.48 c -1.1147,0 -2.5282,0.93685 -3.141,2.0819 -0.19023,0.35545 -0.36971,1.1576 -0.5268,2.2714 -1.8452,-1.5109 -2.7163,-1.765 -3.4749,-1.4272 -0.91618,0.40804 -2.3109,1.3862 -3.0991,2.1744 -0.78822,0.78821 -1.1247,2.4502 -0.74832,3.6931 0.09571,0.31613 0.40853,0.83916 0.89049,1.5121 -1.0275,0.25569 -1.6827,0.60489 -2.1502,1.0723 -0.93024,0.93022 -1.6917,2.5288 -1.6917,3.552 0,1.0232 0.5813,2.4416 1.2917,3.152 0.30394,0.30394 1.087,0.55453 2.3431,0.75163 -0.6033,0.96893 -0.8409,1.7141 -0.8409,2.4059 -1.1e-5,1.3155 0.59234,2.9839 1.3159,3.7074 0.72354,0.72355 2.1375,1.3159 3.1421,1.3159 0.52536,0 1.5004,-0.56214 2.9172,-1.6796 0.26315,1.4035 0.65173,2.2277 1.209,2.785 0.93022,0.93024 2.5288,1.6917 3.552,1.6917 1.0232,0 2.4416,-0.5813 3.152,-1.2917 0.30394,-0.30394 0.55453,-1.087 0.75163,-2.3431 0.96893,0.6033 1.7141,0.8409 2.4059,0.8409 1.3155,1.1e-5 2.9839,-0.59234 3.7074,-1.3159 0.72355,-0.72355 1.3159,-2.1375 1.3159,-3.1421 0,-0.4947 -0.49777,-1.3881 -1.4889,-2.6737 2.503,-0.23244 3.3281,-0.67041 3.6325,-1.4636 0.35931,-0.93636 0.65354,-2.6148 0.65354,-3.7295 0,-1.1147 -0.93685,-2.5282 -2.0819,-3.141 -0.35545,-0.19022 -1.1576,-0.36971 -2.2714,-0.5268 1.5109,-1.8452 1.765,-2.7163 1.4272,-3.4749 -0.40804,-0.91618 -1.3862,-2.3109 -2.1744,-3.0991 -0.78821,-0.78822 -2.4502,-1.1247 -3.6931,-0.74832 -0.26582,0.08048 -0.67792,0.31444 -1.2024,0.67338 -0.24687,-1.9916 -0.67438,-2.6955 -1.393,-2.9712 -0.93636,-0.35931 -2.6148,-0.65354 -3.7295,-0.65354 z m 0.82216,9.3579 c 0.21499,-0.0039 0.41636,0.01298 0.60505,0.05073 0.62559,0.12512 1.6847,0.64529 2.353,1.155 0.66824,0.50969 1.4128,1.5278 1.6553,2.2626 0.2425,0.7348 0.33678,1.8962 0.2083,2.5811 -0.12849,0.6849 -0.59373,1.7032 -1.0338,2.2626 -0.44003,0.55941 -1.3553,1.2486 -2.0334,1.5319 -0.67804,0.2833 -1.6163,0.50839 -2.0852,0.50035 -0.4689,-0.008 -1.3747,-0.24149 -2.0124,-0.51909 -0.63772,-0.2776 -1.4989,-0.9862 -1.9143,-1.5738 -0.41544,-0.58759 -0.87155,-1.6061 -1.0139,-2.2637 -0.1824,-0.84244 -0.03498,-1.7018 0.49924,-2.9095 0.61893,-1.3992 1.0783,-1.8554 2.4996,-2.4841 0.86648,-0.38329 1.6276,-0.5824 2.2725,-0.59403 z"
     display="none"
     fill="url(#radialGradient32)"
     stroke-width="1.0763"
     id="path17" />
  <path
     d="m 24.023,8.565 c -0.6421,-0.00615 -1.4738,0.33112 -1.8484,0.74974 -0.3623,0.40491 -0.53299,0.89037 -0.61267,3.6137 -2.3472,0.53999 -3.4044,1.1656 -5.3842,3.1454 -1.9024,1.9024 -2.6557,3.1523 -3.1558,5.2367 -0.36725,1.5309 -0.49131,3.5098 -0.28037,4.4891 0.2075,0.96327 0.7358,2.4696 1.1734,3.3468 0.43761,0.87726 1.3057,2.1554 1.9294,2.8411 0.62374,0.68572 1.8517,1.6233 2.729,2.0831 0.82873,0.43433 2.1556,0.95467 3.0395,1.1963 0.06831,1.9627 0.16777,3.0027 0.30322,3.2856 0.23238,0.48527 1.178,0.88266 2.1007,0.88266 1.3313,0 1.7566,-0.31106 2.0633,-1.5078 0.09109,-0.35538 0.16204,-1.2509 0.21184,-2.6563 1.0902,-0.24432 2.4005,-0.6859 3.2316,-1.107 1.0512,-0.53257 2.653,-1.8126 3.5597,-2.8453 0.77733,-0.88532 1.9908,-2.6701 1.8101,-3.2192 -0.16227,-0.45922 -1.354,-0.14941 -2.2348,-0.14941 -0.8467,0 -1.7888,-0.29936 -2.3333,-0.0021 -0.11876,0.19209 -0.23956,0.36803 -0.35929,0.52025 -0.62625,0.79615 -1.9281,1.7775 -2.893,2.1807 -0.21882,0.09143 -0.45717,0.17854 -0.70198,0.25857 0.01526,-2.128 0.01156,-4.7086 -0.0135,-7.7144 -0.02068,-2.4837 -0.04343,-4.5318 -0.07062,-6.2201 0.82701,0.32135 1.8088,0.85512 2.4984,1.3811 0.68692,0.52394 1.4316,1.425 1.9221,2.2793 0.52833,0.32291 1.01224,0.16505 2.119,0.093 1.0096,-0.09209 0.4799,0.2811 1.9885,-0.45426 -0.37048,-1.1449 -1.12,-2.7058 -2.2518,-3.9336 -1.5308,-1.6607 -2.9615,-2.5856 -4.9875,-3.2243 -0.53227,-0.16778 -0.98625,-0.30045 -1.3967,-0.39979 -0.09487,-2.2949 -0.2343,-3.1449 -0.46002,-3.4424 C 25.42833,8.88941 24.66521,8.5709 24.02311,8.565 Z m -2.5192,8.8484 c -0.0082,1.7288 -0.01033,3.8495 -0.01033,6.46 0,2.6905 0.0091,4.9666 0.02909,6.865 -0.09711,-0.0379 -0.1909,-0.0769 -0.28141,-0.1163 -0.90759,-0.39508 -2.1336,-1.4026 -2.7248,-2.2388 -0.59124,-0.83625 -1.2408,-2.2863 -1.4434,-3.2222 -0.25958,-1.199 -0.04997,-2.4224 0.71028,-4.1412 0.88085,-1.9913 1.5349,-2.6411 3.5576,-3.5358 0.05461,-0.02416 0.10901,-0.04749 0.16303,-0.07062 z"
     fill="#ff0"
     stroke="#ff0"
     stroke-width="1.232"
     id="path18"
     style="display:none;fill:#000000;stroke:#000000;stroke-width:0.232;stroke-dasharray:none"
     sodipodi:nodetypes="sccscccccccscccccsccscccscccccccsscscssccscc" />
  <path
     d="M 24.001,47.85 C 11.919,47.85 9.11,47.61612 6.694,46.409 4.8167,45.47119 3.162,43.684 1.9552,41.2908 0.2547,37.9186 0.1009,36.4806 0.1009,23.9528 0.1009,11.4068 0.25224,9.9968 1.9552,6.6758 3.1,4.4433 4.9133,2.4729 6.694,1.5264 9.2624,0.1612 11.2656,0.0191 24.973,0.2292 c 14.063,0.21557 15.596,0.3837 17.719,1.9429 1.2782,0.93877 2.9725,2.9785 3.765,4.5328 1.2146,2.3819 1.4412,5.17 1.4422,17.745 8.24e-4,14.139 -0.09645,15.065 -1.8695,17.719 -1.0289,1.5402 -3.1614,3.4488 -4.7388,4.2413 -2.4038,1.2077 -5.2027,1.441 -17.291,1.441 z m -0.17957,-3.2953 c 9.1957,8.24e-4 13.374,-0.32434 15.482,-1.2053 1.9627,-0.82009 3.2742,-2.1315 4.0942,-4.0942 0.87811,-2.1016 1.2066,-6.2672 1.2066,-15.303 0,-8.8412 -0.33578,-13.219 -1.1664,-15.207 -0.64154,-1.5354 -2.0323,-3.2731 -3.0905,-3.8615 -1.2526,-0.69647 -6.2429,-1.1802 -14.3,-1.3862 -7.6989,-0.1968 -13.695,0.0389 -15.867,0.62377 -2.2029,0.59318 -4.0228,1.7502 -4.9314,3.1352 -1.1802,1.799 -1.4877,4.5072 -1.7041,15.008 -0.18625,9.0369 0.056619,13.785 0.82414,16.11 0.79513,2.4087 1.8651,3.6847 3.9727,4.7375 2.368,1.183 5.1396,1.4412 15.479,1.4422 z"
     stroke-width="0.82414"
     id="path11"
     style="display:none;stroke-width:0.824;stroke-dasharray:none" />
  <path
     d="m 23.061,9.48 c -1.1147,0 -2.5282,0.93685 -3.141,2.0819 -0.19023,0.35545 -0.36971,1.1576 -0.5268,2.2714 -1.8452,-1.5109 -2.7163,-1.765 -3.4749,-1.4272 -0.91618,0.40804 -2.3109,1.3862 -3.0991,2.1744 -0.78822,0.78821 -1.1247,2.4502 -0.74832,3.6931 0.09571,0.31613 0.40853,0.83916 0.89049,1.5121 -1.0275,0.25569 -1.6827,0.60489 -2.1502,1.0723 -0.93024,0.93022 -1.6917,2.5288 -1.6917,3.552 0,1.0232 0.5813,2.4416 1.2917,3.152 0.30394,0.30394 1.087,0.55453 2.3431,0.75163 -0.6033,0.96893 -0.8409,1.7141 -0.8409,2.4059 -1.1e-5,1.3155 0.59234,2.9839 1.3159,3.7074 0.72354,0.72355 2.1375,1.3159 3.1421,1.3159 0.52536,0 1.5004,-0.56214 2.9172,-1.6796 0.26315,1.4035 0.65173,2.2277 1.209,2.785 0.93022,0.93024 2.5288,1.6917 3.552,1.6917 1.0232,0 2.4416,-0.5813 3.152,-1.2917 0.30394,-0.30394 0.55453,-1.087 0.75163,-2.3431 0.96893,0.6033 1.7141,0.8409 2.4059,0.8409 1.3155,1.1e-5 2.9839,-0.59234 3.7074,-1.3159 0.72355,-0.72355 1.3159,-2.1375 1.3159,-3.1421 0,-0.4947 -0.49777,-1.3881 -1.4889,-2.6737 2.503,-0.23244 3.3281,-0.67041 3.6325,-1.4636 0.35931,-0.93636 0.65354,-2.6148 0.65354,-3.7295 0,-1.1147 -0.93685,-2.5282 -2.0819,-3.141 -0.35545,-0.19022 -1.1576,-0.36971 -2.2714,-0.5268 1.5109,-1.8452 1.765,-2.7163 1.4272,-3.4749 -0.40804,-0.91618 -1.3862,-2.3109 -2.1744,-3.0991 -0.78821,-0.78822 -2.4502,-1.1247 -3.6931,-0.74832 -0.26582,0.08048 -0.67792,0.31444 -1.2024,0.67338 -0.24687,-1.9916 -0.67438,-2.6955 -1.393,-2.9712 -0.93636,-0.35931 -2.6148,-0.65354 -3.7295,-0.65354 z m 0.82216,9.3579 c 0.21499,-0.0039 0.41636,0.01298 0.60505,0.05073 0.62559,0.12512 1.6847,0.64529 2.353,1.155 0.66824,0.50969 1.4128,1.5278 1.6553,2.2626 0.2425,0.7348 0.33678,1.8962 0.2083,2.5811 -0.12849,0.6849 -0.59373,1.7032 -1.0338,2.2626 -0.44003,0.55941 -1.3553,1.2486 -2.0334,1.5319 -0.67804,0.2833 -1.6163,0.50839 -2.0852,0.50035 -0.4689,-0.008 -1.3747,-0.24149 -2.0124,-0.51909 -0.63772,-0.2776 -1.4989,-0.9862 -1.9143,-1.5738 -0.41544,-0.58759 -0.87155,-1.6061 -1.0139,-2.2637 -0.1824,-0.84244 -0.03498,-1.7018 0.49924,-2.9095 0.61893,-1.3992 1.0783,-1.8554 2.4996,-2.4841 0.86648,-0.38329 1.6276,-0.5824 2.2725,-0.59403 z"
     display="none"
     stroke-width="1.0763"
     id="path19" />
</svg>
