<?xml version="1.0" encoding="UTF-8"?>
<!-- Created with Inkscape (http://www.inkscape.org/) -->
<svg width="50mm" height="50mm" version="1.1" viewBox="0 0 50 50" xmlns="http://www.w3.org/2000/svg">
 <circle cx="25.186" cy="25.186" r="22.338" fill="#808080" stroke-width=".32928"/>
 <path d="m27.006 49.018c-2.6056 0.18979-6.1342-0.08712-8.0575-0.63191-1.8819-0.53329-4.6414-1.7233-6.1322-2.6446-1.4908-0.92133-3.9087-3.0014-5.3731-4.6223-1.4644-1.6209-3.1617-3.9124-3.7718-5.0922-0.61045-1.1799-1.4788-4.1823-1.9302-6.6722-0.5588-3.0823-0.58556-5.7683-0.083387-8.4163 0.40572-2.139 1.4264-5.2394 2.2684-6.8897 0.84193-1.6503 2.5208-4.1281 3.7307-5.5062 1.2099-1.3781 3.9871-3.4783 6.1714-4.6672 3.1081-1.6916 5.225-2.2341 9.7364-2.4953 4.2433-0.2458 6.8315 0.018671 9.8062 1.007 3.0138 0.99986 5.2185 2.5171 8.6711 5.9676 3.6136 3.6114 4.893 5.5131 5.8289 8.6645 0.65948 2.2206 1.1991 5.9941 1.1991 8.3855 0 2.6033-0.64685 6.0767-1.612 8.6563-1.0409 2.782-2.8395 5.5317-5.0767 7.7613-1.9056 1.8991-5.1016 4.2191-7.1022 5.1556-2.0278 0.94915-5.6889 1.8519-8.2732 2.0401zm-0.87522-2.8565c3.3753-0.20535 6.3968-0.90067 8.4189-1.9373 1.7348-0.88922 4.3305-2.8281 5.7683-4.3085 1.4378-1.4804 3.2216-3.937 3.964-5.4591 0.81044-1.6616 1.4658-5.06 1.6402-8.5051 0.23024-4.5439-0.01868-6.4409-1.2045-9.1174-0.8222-1.8588-2.7205-4.7361-4.2184-6.3941-1.4979-1.6579-4.4915-3.7751-6.6525-4.7047-2.161-0.92967-5.6273-1.7315-7.7028-1.7818-2.0756-0.049786-5.4114 0.38394-7.413 0.96471-2.3773 0.68997-5.037 2.3336-7.6699 4.7399-2.9409 2.6878-4.468 4.8422-5.6487 7.9687-1.2318 3.2621-1.5343 5.3676-1.2673 8.8197 0.1929 2.4941 1.0565 5.918 1.919 7.6087 0.86247 1.6906 2.444 4.1148 3.5145 5.3871 1.0705 1.2722 4.0481 3.3766 6.6169 4.6763 4.2149 2.1327 5.1841 2.332 9.9353 2.0429zm-1.292-11.091c-0.94404-0.0015-2.798-0.66228-4.1199-1.4683-1.3219-0.80603-2.9246-2.2609-3.5616-3.233s-1.3623-2.7886-1.6119-4.0367c-0.2682-1.3396 0.01868-3.3965 0.69595-5.0209 0.63994-1.5317 2.2536-3.4248 3.6393-4.2696 1.4905-0.90876 3.8079-1.519 5.7745-1.5207 2.8148-0.0017 3.7028 0.41505 6.2049 2.9171 2.5021 2.5021 2.9196 3.3901 2.9171 6.2049-0.0017 1.9667-0.61169 4.2841-1.5207 5.7745-0.83484 1.3693-2.6842 2.9769-4.1096 3.5725-1.4255 0.59551-3.3642 1.0817-4.3082 1.0801z" stroke-width=".75211"/>
 <rect x="5.5077" y="22.716" width="39.356" height="4.9393" fill="#f00" stroke-width=".30157"/>
</svg>
