<?xml version="1.0" encoding="UTF-8"?>
<!-- Created with Inkscape (http://www.inkscape.org/) -->
<svg width="500mm" height="50mm" version="1.1" viewBox="0 0 500 50" xmlns="http://www.w3.org/2000/svg">
 <path d="m499.48 25.037c-0.64913-16.504-2.6747-22.052-12.533-22.122-11.936-0.085-60.967-2.0533-239.17-2.0533-199.8 1e-5 -230.06-2.5463-241.77 2.3918-7.2128 3.0425-5.2486 14.345-5.2126 22.821 0.0438 10.294-0.82581 20.821 6.8977 22.142 20.888 3.5705 119.65-0.0325 241-0.0325 121.35 0 216.52 0.4864 237.49-0.14173 16.397-0.49132 11.699-9.4375 13.307-23.004zm-12.114-0.0279c-1.5295 3.6431 2.9395 6.0446-12.662 6.1765-19.945 0.16869-110.5 0.0371-225.95 0.0372-115.46-1e-5 -209.42 0.96548-229.3 9e-3 -7.3485-0.35456-6.52-3.1791-6.5616-5.9436-0.0344-2.2761-1.9039-5.3115 4.9587-6.1285 11.138-1.3261 39.929-0.64357 230.03-0.64357 169.55 0 216.2 0.52954 227.56 0.55231 9.38 0.0185 11.307 1.5091 11.924 5.9412z" stroke-width="6.2998"/>
</svg>
