<?xml version="1.0" encoding="UTF-8"?>
<!-- Created with Inkscape (http://www.inkscape.org/) -->
<svg width="50mm" height="500mm" version="1.1" viewBox="0 0 50 500" xmlns="http://www.w3.org/2000/svg">
 <path d="m25.508 0.48924c-16.505 0.64914-22.052 2.6747-22.122 12.533-0.08504 11.936-2.0533 60.967-2.0533 239.17 0 199.8-2.5463 230.06 2.3919 241.77 3.0425 7.2128 14.345 5.2486 22.821 5.2126 10.294-0.0438 20.821 0.82581 22.142-6.8977 3.5705-20.888-0.03252-119.65-0.03252-241 0-121.35 0.48641-216.52-0.14173-237.49-0.49131-16.397-9.4375-11.699-23.004-13.307zm-0.027877 12.114c3.6431 1.5295 6.0446-2.9395 6.1765 12.662 0.16868 19.945 0.03715 110.5 0.03715 225.95 0 115.46 0.96548 209.42 0.0094 229.3-0.35457 7.3485-3.1791 6.52-5.9436 6.5616-2.2761 0.0344-5.3115 1.9039-6.1285-4.9587-1.3261-11.138-0.64358-39.929-0.64358-230.03 0-169.55 0.52954-216.2 0.55231-227.56 0.01852-9.38 1.5091-11.307 5.9412-11.924z" stroke-width="6.2998"/>
</svg>
