<?xml version="1.0" encoding="UTF-8" standalone="no"?>
<!-- Created with Inkscape (http://www.inkscape.org/) -->

<svg
   width="48"
   height="48"
   viewBox="0 0 48 48"
   version="1.1"
   id="svg1"
   xmlns="http://www.w3.org/2000/svg"
   xmlns:svg="http://www.w3.org/2000/svg">
  <defs
     id="defs1" />
  <g
     id="layer1">
    <path
       d="m 24.000642,47.850039 c -12.081558,0 -14.8906703,-0.233884 -17.3069795,-1.440962 C 4.8163746,45.471269 3.1616709,43.684085 1.9548471,41.290875 0.25432118,37.918628 0.10052808,36.48064 0.10052808,23.95249 0.10052808,11.406274 0.25186521,9.9962004 1.9548471,6.6750818 3.0996213,4.4425808 4.9129063,2.4721647 6.6936625,1.5256462 9.262051,0.16048009 11.265276,0.01832386 24.973161,0.22845523 39.035887,0.44402597 40.569279,0.61215915 42.692209,2.1713201 c 1.278228,0.9387716 2.972483,2.9785226 3.76501,4.5327798 1.214562,2.3818855 1.441177,5.1700141 1.442248,17.7446221 8.24e-4,14.139315 -0.09645,15.065007 -1.869458,17.719049 -1.028916,1.540181 -3.161384,3.448769 -4.738815,4.241306 -2.4038,1.207705 -5.202733,1.440962 -17.290552,1.440962 z m -0.179566,-3.295282 c 9.195659,8.24e-4 13.373943,-0.32434 15.48232,-1.205274 1.962744,-0.820086 3.27415,-2.131494 4.094238,-4.094238 0.878114,-2.101635 1.206552,-6.267177 1.206552,-15.302755 0,-8.841179 -0.33578,-13.218699 -1.166442,-15.2067599 C 42.7962,7.2103044 41.405461,5.4726261 40.347213,4.88423 39.094592,4.187756 34.104281,3.7040095 26.047544,3.4980564 18.348677,3.3012515 12.352583,3.536956 10.180607,4.1218248 7.9777247,4.7150007 6.1578136,5.8720382 5.2492138,7.2570332 4.069018,9.0560188 3.7615142,11.764241 3.5450863,22.265266 c -0.1862477,9.036938 0.056619,13.784679 0.8241419,16.109706 0.795132,2.408703 1.8650988,3.684663 3.9727181,4.737537 2.3680227,1.182957 5.1395627,1.441194 15.4791297,1.442248 z"
       style="fill:#000000;stroke-width:0.824143"
       id="path1" />
    <path
       d="m 24.000358,37.476566 c -6.826735,0 -8.414036,-0.132155 -9.77938,-0.814219 -1.060774,-0.529909 -1.995768,-1.539771 -2.677686,-2.892058 -0.960894,-1.905509 -1.047794,-2.718044 -1.047794,-9.797136 0,-7.089287 0.08551,-7.886056 1.047794,-9.762672 0.646856,-1.261484 1.67146,-2.374877 2.677686,-2.909707 1.45128,-0.771398 2.58321,-0.851723 10.328905,-0.732984 7.946206,0.121808 8.812654,0.216813 10.012227,1.097826 0.722269,0.530452 1.679611,1.683024 2.127435,2.561267 0.686296,1.345888 0.814342,2.921333 0.814954,10.026669 4.59e-4,7.98948 -0.05449,8.512546 -1.056351,10.012228 -0.581395,0.870282 -1.786349,1.948744 -2.677686,2.396567 -1.35828,0.682423 -2.939825,0.814219 -9.770104,0.814219 z"
       style="fill:#000000;stroke-width:0.465685"
       id="path1-3" />
  </g>
</svg>
