<?xml version="1.0" encoding="UTF-8"?>
<!-- Created with Inkscape (http://www.inkscape.org/) -->
<svg width="48" height="48" version="1.1" viewBox="0 0 48 48" xmlns="http://www.w3.org/2000/svg" xmlns:xlink="http://www.w3.org/1999/xlink">
 <defs>
  <radialGradient id="radialGradient3" cx="24" cy="24" r="13.505" gradientTransform="matrix(1.8138 1.3716 -.71035 .93939 -2.4828 -31.463)" gradientUnits="userSpaceOnUse">
   <stop stop-color="#00f" offset="0"/>
   <stop stop-color="#00f" stop-opacity="0" offset="1"/>
  </radialGradient>
 </defs>
 <path d="m24 37.477c-6.8267 0-8.414-0.13216-9.7794-0.81422-1.0608-0.52991-1.9958-1.5398-2.6777-2.8921-0.96089-1.9055-1.0478-2.718-1.0478-9.7971 0-7.0893 0.08551-7.8861 1.0478-9.7627 0.64686-1.2615 1.6715-2.3749 2.6777-2.9097 1.4513-0.7714 2.5832-0.85172 10.329-0.73298 7.9462 0.12181 8.8127 0.21681 10.012 1.0978 0.72227 0.53045 1.6796 1.683 2.1274 2.5613 0.6863 1.3459 0.81434 2.9213 0.81495 10.027 4.59e-4 7.9895-0.05449 8.5125-1.0564 10.012-0.5814 0.87028-1.7863 1.9487-2.6777 2.3966-1.3583 0.68242-2.9398 0.81422-9.7701 0.81422z" stroke-width=".46568"/>
 <path d="m24 37.477c-6.8267 0-8.414-0.13216-9.7794-0.81422-1.0608-0.52991-1.9958-1.5398-2.6777-2.8921-0.96089-1.9055-1.0478-2.718-1.0478-9.7971 0-7.0893 0.08551-7.8861 1.0478-9.7627 0.64686-1.2615 1.6715-2.3749 2.6777-2.9097 1.4513-0.7714 2.5832-0.85172 10.329-0.73298 7.9462 0.12181 8.8127 0.21681 10.012 1.0978 0.72227 0.53045 1.6796 1.683 2.1274 2.5613 0.6863 1.3459 0.81434 2.9213 0.81495 10.027 4.59e-4 7.9895-0.05449 8.5125-1.0564 10.012-0.5814 0.87028-1.7863 1.9487-2.6777 2.3966-1.3583 0.68242-2.9398 0.81422-9.7701 0.81422z" fill="url(#radialGradient3)" stroke-width=".46568"/>
 <path d="m24.001 45.686c-10.985 0-13.539-0.21265-15.736-1.3102-1.7069-0.85269-3.2114-2.4777-4.3087-4.6537-1.5462-3.0662-1.686-4.3737-1.686-15.765 0-11.408 0.1376-12.69 1.686-15.709 1.0409-2.0299 2.6896-3.8215 4.3087-4.6821 2.3353-1.2413 4.1567-1.3705 16.621-1.1795 12.786 0.196 14.181 0.34888 16.111 1.7665 1.1622 0.85356 2.7027 2.7082 3.4233 4.1214 1.1043 2.1657 1.3104 4.7008 1.3114 16.134 7.4e-4 12.856-0.08767 13.698-1.6998 16.111-0.93554 1.4004-2.8745 3.1358-4.3087 3.8564-2.1856 1.0981-4.7306 1.3102-15.721 1.3102z" display="none" fill="#fff" fill-opacity=".35859" stroke-width=".74935"/>
 <path d="m24.001 47.85c-12.082 0-14.891-0.23388-17.307-1.441-1.8773-0.93781-3.532-2.725-4.7388-5.1182-1.7005-3.3722-1.8543-4.8102-1.8543-17.338 0-12.546 0.15134-13.956 1.8543-17.277 1.1448-2.2325 2.9581-4.2029 4.7388-5.1494 2.5684-1.3652 4.5716-1.5073 18.279-1.2972 14.063 0.21557 15.596 0.3837 17.719 1.9429 1.2782 0.93877 2.9725 2.9785 3.765 4.5328 1.2146 2.3819 1.4412 5.17 1.4422 17.745 8.24e-4 14.139-0.09645 15.065-1.8695 17.719-1.0289 1.5402-3.1614 3.4488-4.7388 4.2413-2.4038 1.2077-5.2027 1.441-17.291 1.441zm-0.17957-3.2953c9.1957 8.24e-4 13.374-0.32434 15.482-1.2053 1.9627-0.82009 3.2742-2.1315 4.0942-4.0942 0.87811-2.1016 1.2066-6.2672 1.2066-15.303 0-8.8412-0.33578-13.219-1.1664-15.207-0.64154-1.5354-2.0323-3.2731-3.0905-3.8615-1.2526-0.69647-6.2429-1.1802-14.3-1.3862-7.6989-0.1968-13.695 0.0389-15.867 0.62377-2.2029 0.59318-4.0228 1.7502-4.9314 3.1352-1.1802 1.799-1.4877 4.5072-1.7041 15.008-0.18625 9.0369 0.056619 13.785 0.82414 16.11 0.79513 2.4087 1.8651 3.6847 3.9727 4.7375 2.368 1.183 5.1396 1.4412 15.479 1.4422z" stroke-width=".82414"/>
</svg>
